<svg xmlns="http://www.w3.org/2000/svg" viewBox="0 0 180 180" fill="none">
  <defs>
    <linearGradient id="brand" x1="0" y1="0" x2="180" y2="180" gradientUnits="userSpaceOnUse">
      <stop stop-color="#8b5cf6"/>
      <stop offset="0.5" stop-color="#7c3aed"/>
      <stop offset="1" stop-color="#6d28d9"/>
    </linearGradient>
  </defs>
  <rect width="180" height="180" rx="40" fill="url(#brand)"/>
  <g transform="translate(40.5 40.5) scale(4.125)" stroke="#fff" stroke-width="2" stroke-linecap="round" stroke-linejoin="round">
    <rect width="5" height="5" x="3" y="3" rx="1"/>
    <rect width="5" height="5" x="16" y="3" rx="1"/>
    <rect width="5" height="5" x="3" y="16" rx="1"/>
    <path d="M21 16h-3a2 2 0 0 0-2 2v3"/>
    <path d="M21 21v.01"/>
    <path d="M12 7v3a2 2 0 0 1-2 2H7"/>
    <path d="M3 12h.01"/>
    <path d="M12 3h.01"/>
    <path d="M12 16v.01"/>
    <path d="M16 12h1"/>
    <path d="M21 12v.01"/>
    <path d="M12 21v-1"/>
  </g>
</svg>
